{
    "asset" : {
        "generator" : "Khronos glTF Blender I/O v1.7.33",
        "version" : "2.0"
    },
    "scene" : 0,
    "scenes" : [
        {
            "name" : "Scene",
            "nodes" : [
                0
            ]
        }
    ],
    "nodes" : [
        {
            "mesh" : 0,
            "name" : "point",
            "scale" : [
                0.18000000715255737,
                4.380000114440918,
                0.18000000715255737
            ],
            "translation" : [
                0,
                4.310211181640625,
                0
            ]
        }
    ],
    "meshes" : [
        {
            "name" : "\u5713\u67f1\u9ad4",
            "primitives" : [
                {
                    "attributes" : {
                        "POSITION" : 0,
                        "NORMAL" : 1,
                        "TEXCOORD_0" : 2
                    },
                    "indices" : 3
                }
            ]
        }
    ],
    "accessors" : [
        {
            "bufferView" : 0,
            "componentType" : 5126,
            "count" : 16406,
            "max" : [
                4.164142608642578,
                1.1967363357543945,
                4.16071081161499
            ],
            "min" : [
                -4.164144992828369,
                -1,
                -4.165291786193848
            ],
            "type" : "VEC3"
        },
        {
            "bufferView" : 1,
            "componentType" : 5126,
            "count" : 16406,
            "type" : "VEC3"
        },
        {
            "bufferView" : 2,
            "componentType" : 5126,
            "count" : 16406,
            "type" : "VEC2"
        },
        {
            "bufferView" : 3,
            "componentType" : 5123,
            "count" : 24492,
            "type" : "SCALAR"
        }
    ],
    "bufferViews" : [
        {
            "buffer" : 0,
            "byteLength" : 196872,
            "byteOffset" : 0
        },
        {
            "buffer" : 0,
            "byteLength" : 196872,
            "byteOffset" : 196872
        },
        {
            "buffer" : 0,
            "byteLength" : 131248,
            "byteOffset" : 393744
        },
        {
            "buffer" : 0,
            "byteLength" : 48984,
            "byteOffset" : 524992
        }
    ],
    "buffers" : [
        {
            "byteLength" : 573976,
            "uri" : "data:application/octet-stream;base64,"
        }
    ]
}
